<svg xmlns="http://www.w3.org/2000/svg" width="80" height="80" fill="none" viewBox="0 0 80 80">
    <path fill="#000" d="M61.98 35.96c4.208-2.231 7.083-6.656 7.083-11.741 0-7.324-5.959-13.282-13.282-13.282-4.34 0-8.337 2.112-10.798 5.551-3.32-2.033-7.22-3.207-11.39-3.207-11.33 0-20.677 8.66-21.768 19.71C5.13 34.064 0 39.88 0 46.874c0 3.664 1.402 7.133 3.948 9.768 1.818 1.881 4.082 3.191 6.56 3.835-.077.34-.145.682-.197 1.03-4.117.989-7.186 4.701-7.186 9.117C3.125 75.795 7.331 80 12.5 80h23.438c5.169 0 9.374-4.206 9.374-9.375 0-4.416-3.068-8.128-7.185-9.117-.029-.191-.062-.381-.099-.57h15.097c7.754 0 14.063-6.309 14.063-14.063 0-4.4-2.033-8.335-5.208-10.915zM55.78 15.625c4.739 0 8.594 3.855 8.594 8.594 0 4.738-3.855 8.593-8.594 8.593-.146 0-.293-.005-.44-.013-.567-5.264-3.007-9.975-6.64-13.449 1.584-2.304 4.216-3.725 7.08-3.725zm-15.156 55c0 2.585-2.103 4.688-4.688 4.688H12.5c-2.585 0-4.688-2.103-4.688-4.688 0-1.85 1.078-3.453 2.638-4.215.197.959.492 1.9.889 2.809.384.88 1.245 1.407 2.15 1.407.312 0 .63-.064.935-.197 1.187-.517 1.729-1.899 1.211-3.085-.526-1.207-.785-2.471-.793-3.723v-.003c.001-5.168 4.208-9.4 9.377-9.4 5.17 0 9.375 4.206 9.375 9.376 0 1.294 1.05 2.343 2.343 2.343 2.585 0 4.688 2.103 4.688 4.688zm12.5-14.375H36.208c-2.477-4.028-6.925-6.719-11.99-6.719-4.996 0-9.39 2.621-11.884 6.558-4.384-.806-7.646-4.618-7.646-9.214 0-4.421 3.077-8.135 7.201-9.118.253 2.119.81 4.178 1.67 6.15.385.88 1.246 1.406 2.15 1.406.313 0 .63-.063.936-.196 1.186-.518 1.728-1.9 1.21-3.086-.949-2.175-1.432-4.49-1.435-6.878.119-9.376 7.77-17.184 17.174-17.184 8.758 0 16.006 6.585 17.056 15.063-2.814.498-5.406 1.837-7.469 3.9-.915.915-.915 2.399 0 3.314.458.458 1.058.686 1.657.686.6 0 1.2-.228 1.658-.686 1.77-1.77 4.125-2.746 6.629-2.746 5.17 0 9.375 4.206 9.375 9.375 0 5.17-4.206 9.375-9.375 9.375zM77.656 21.875h-3.125c-1.294 0-2.344 1.05-2.344 2.344 0 1.294 1.05 2.343 2.344 2.343h3.125c1.295 0 2.344-1.049 2.344-2.343 0-1.295-1.05-2.344-2.344-2.344zM67.382 12.618c.915.915 2.4.915 3.315 0l2.21-2.21c.915-.915.915-2.4 0-3.315-.916-.915-2.4-.915-3.315 0l-2.21 2.21c-.915.915-.915 2.4 0 3.315zM55.781 7.813c1.295 0 2.344-1.05 2.344-2.344V2.344c0-1.295-1.05-2.344-2.344-2.344-1.294 0-2.343 1.05-2.343 2.344v3.125c0 1.294 1.049 2.343 2.343 2.343z"/>
    <path fill="#000" d="M40.866 12.618c.915.915 2.4.915 3.314 0 .916-.915.916-2.4 0-3.315l-2.21-2.21c-.915-.915-2.399-.915-3.314 0-.915.916-.915 2.4 0 3.315l2.21 2.21zM70.697 35.82c-.916-.916-2.4-.916-3.315 0-.915.915-.915 2.399 0 3.314l2.21 2.21c.915.915 2.4.915 3.314 0 .916-.915.916-2.4 0-3.315l-2.21-2.21z"/>
</svg>
