<svg xmlns="http://www.w3.org/2000/svg" width="80" height="80" fill="none" viewBox="0 0 80 80">
    <path fill="#000" d="M65.845 23.591C64.723 10.397 53.56 0 40 0 26.529 0 15.437 10.385 14.313 23.57 6.25 24.602 0 31.506 0 39.844 0 48.89 7.36 56.25 16.406 56.25h47.188C72.64 56.25 80 48.89 80 39.844c0-8.283-6.17-15.152-14.155-16.253zm-2.251 27.971H16.406c-6.461 0-11.718-5.256-11.718-11.718 0-5.758 4.175-10.556 9.657-11.534.263 2.686.94 5.295 2.026 7.784.385.88 1.246 1.407 2.15 1.407.313 0 .63-.064.936-.197 1.186-.517 1.729-1.899 1.21-3.085-1.164-2.67-1.757-5.51-1.76-8.44 0-11.63 9.462-21.091 21.093-21.091 10.982 0 20.045 8.312 21.14 18.931-3.451.515-6.635 2.111-9.147 4.624-.916.915-.916 2.399 0 3.314.457.458 1.057.687 1.657.687.6 0 1.2-.229 1.657-.687 2.214-2.213 5.157-3.432 8.287-3.432 6.461 0 11.718 5.257 11.718 11.719s-5.257 11.718-11.718 11.718zM69.317 67.11c-.647-1.122-2.08-1.506-3.201-.858l-1.897 1.095v-2.19c0-1.295-1.05-2.344-2.344-2.344-1.294 0-2.344 1.049-2.344 2.343v2.19l-1.897-1.095c-1.12-.647-2.554-.263-3.201.858-.648 1.121-.264 2.555.857 3.202l1.898 1.095-1.898 1.096c-1.12.647-1.505 2.08-.857 3.201.647 1.121 2.08 1.505 3.201.858l1.897-1.095v2.19c0 1.295 1.05 2.344 2.344 2.344 1.294 0 2.344-1.05 2.344-2.344v-2.19l1.897 1.095c1.12.647 2.554.263 3.201-.858.648-1.12.263-2.554-.857-3.201l-1.897-1.096 1.897-1.095c1.12-.647 1.505-2.08.857-3.202zM47.442 67.11c-.647-1.122-2.08-1.506-3.201-.858l-1.897 1.095v-2.19c0-1.295-1.05-2.344-2.344-2.344-1.294 0-2.344 1.049-2.344 2.343v2.19l-1.897-1.095c-1.12-.647-2.554-.263-3.201.858-.648 1.121-.264 2.555.858 3.202l1.897 1.095-1.898 1.096c-1.12.647-1.505 2.08-.857 3.201.647 1.121 2.08 1.505 3.201.858l1.897-1.095v2.19C37.656 78.951 38.706 80 40 80c1.294 0 2.344-1.05 2.344-2.344v-2.19l1.897 1.095c1.12.647 2.554.263 3.201-.858.648-1.12.264-2.554-.858-3.201l-1.897-1.096 1.898-1.095c1.12-.647 1.505-2.08.857-3.202zM25.567 67.11c-.647-1.122-2.08-1.506-3.201-.858l-1.897 1.095v-2.19c0-1.295-1.05-2.344-2.344-2.344-1.294 0-2.344 1.049-2.344 2.343v2.19l-1.897-1.095c-1.12-.647-2.554-.263-3.201.858-.647 1.121-.264 2.555.857 3.202l1.898 1.095-1.898 1.096c-1.12.647-1.504 2.08-.857 3.201s2.08 1.505 3.201.858l1.897-1.095v2.19c0 1.295 1.05 2.344 2.344 2.344 1.294 0 2.344-1.05 2.344-2.344v-2.19l1.897 1.095c1.12.647 2.554.263 3.201-.858.648-1.12.264-2.554-.858-3.201l-1.896-1.096 1.896-1.095c1.122-.647 1.506-2.08.858-3.202z"/>
</svg>
