<svg xmlns="http://www.w3.org/2000/svg" width="80" height="80" fill="none" viewBox="0 0 80 80">
    <path fill="#000" d="M40 18.906c-11.631 0-21.094 9.463-21.094 21.094 0 11.631 9.463 21.094 21.094 21.094 11.631 0 21.094-9.463 21.094-21.094 0-11.631-9.463-21.094-21.094-21.094zm0 37.5c-9.046 0-16.406-7.36-16.406-16.406S30.954 23.594 40 23.594 56.406 30.954 56.406 40 49.046 56.406 40 56.406zM11.875 42.344H2.344C1.049 42.344 0 41.294 0 40c0-1.294 1.05-2.344 2.344-2.344h9.531c1.294 0 2.344 1.05 2.344 2.344 0 1.294-1.05 2.344-2.344 2.344zM27.072 14.913l-1.794-4.331c-.495-1.196.072-2.567 1.268-3.062 1.196-.495 2.567.072 3.063 1.268l1.793 4.331c.496 1.196-.072 2.567-1.268 3.062-1.196.496-2.567-.072-3.062-1.268zM13.119 31.402l-4.33-1.793c-1.197-.496-1.765-1.867-1.27-3.063.496-1.196 1.867-1.764 3.063-1.268l4.33 1.794c1.197.495 1.764 1.866 1.27 3.062-.496 1.196-1.867 1.764-3.063 1.268zM63.819 30.134c-.496-1.196.072-2.567 1.268-3.062l4.331-1.794c1.196-.495 2.567.072 3.062 1.268.495 1.196-.072 2.567-1.268 3.063l-4.331 1.793c-1.196.496-2.567-.072-3.062-1.268zM49.866 16.181c-1.196-.495-1.764-1.866-1.268-3.062l1.794-4.33c.495-1.197 1.866-1.764 3.062-1.27 1.196.496 1.764 1.867 1.268 3.063l-1.794 4.331c-.495 1.196-1.866 1.764-3.062 1.268zM40 80c-1.294 0-2.344-1.05-2.344-2.344v-9.531c0-1.294 1.05-2.344 2.344-2.344 1.294 0 2.344 1.05 2.344 2.344v9.531C42.344 78.951 41.294 80 40 80zM40 14.219c-1.294 0-2.344-1.05-2.344-2.344V2.344C37.656 1.049 38.706 0 40 0c1.294 0 2.344 1.05 2.344 2.344v9.531c0 1.294-1.05 2.344-2.344 2.344zM77.656 42.344h-9.531c-1.294 0-2.344-1.05-2.344-2.344 0-1.294 1.05-2.344 2.344-2.344h9.531C78.951 37.656 80 38.706 80 40c0 1.294-1.05 2.344-2.344 2.344zM11.716 68.284c-.915-.915-.915-2.399 0-3.314l6.74-6.74c.915-.915 2.399-.915 3.314 0s.915 2.4 0 3.315l-6.74 6.74c-.915.915-2.399.915-3.314 0zM64.97 68.284l-6.74-6.74c-.915-.915-.915-2.399 0-3.314.916-.915 2.4-.915 3.315 0l6.74 6.74c.915.915.915 2.399 0 3.314-.916.915-2.4.915-3.315 0zM18.455 21.77l-6.74-6.74c-.915-.915-.915-2.4 0-3.314.916-.916 2.4-.916 3.315 0l6.74 6.74c.915.915.915 2.399 0 3.314s-2.4.915-3.315 0zM58.23 21.77c-.915-.915-.915-2.4 0-3.315l6.74-6.74c.915-.915 2.4-.915 3.314 0 .916.916.916 2.4 0 3.315l-6.74 6.74c-.914.915-2.398.915-3.314 0zM26.547 72.48c-1.196-.495-1.764-1.866-1.269-3.062l1.794-4.331c.495-1.196 1.866-1.764 3.062-1.268 1.196.495 1.764 1.866 1.269 3.062l-1.794 4.33c-.496 1.197-1.867 1.764-3.062 1.27zM7.52 53.454c-.496-1.196.072-2.567 1.268-3.063l4.331-1.794c1.196-.495 2.567.073 3.062 1.269.495 1.196-.072 2.567-1.268 3.062l-4.331 1.794c-1.196.495-2.567-.072-3.062-1.268zM69.418 54.722l-4.331-1.794c-1.196-.495-1.764-1.866-1.269-3.062.496-1.196 1.867-1.764 3.063-1.269l4.33 1.794c1.197.496 1.764 1.867 1.269 3.063-.495 1.196-1.866 1.764-3.062 1.268zM50.391 71.212l-1.794-4.331c-.495-1.196.073-2.567 1.269-3.062 1.196-.496 2.567.072 3.062 1.268l1.794 4.331c.495 1.196-.072 2.567-1.268 3.062-1.196.495-2.567-.072-3.063-1.268z"/>
</svg>
