<svg xmlns="http://www.w3.org/2000/svg" width="80" height="80" fill="none" viewBox="0 0 80 80">
    <g fill="#000" clip-path="url(#clip0)">
        <path d="M48.292 70.385c-1.198-.491-2.566.082-3.057 1.28l-2.091 5.102c-.491 1.198.082 2.566 1.28 3.057 1.197.491 2.566-.082 3.057-1.28l2.091-5.102c.491-1.198-.082-2.566-1.28-3.057zM9.23 70.385c-1.198-.491-2.567.082-3.058 1.28l-2.09 5.102c-.492 1.198.081 2.566 1.28 3.057 1.197.491 2.566-.082 3.057-1.28l2.09-5.102c.492-1.198-.081-2.566-1.28-3.057zM22.25 70.385c-1.197-.491-2.566.082-3.057 1.28l-2.09 5.102c-.492 1.198.081 2.566 1.279 3.057 1.198.491 2.567-.082 3.057-1.28l2.092-5.102c.49-1.197-.082-2.566-1.28-3.057zM35.272 70.385c-1.198-.491-2.567.082-3.058 1.28l-2.091 5.102c-.491 1.198.082 2.566 1.28 3.057 1.198.491 2.566-.082 3.058-1.28l2.09-5.102c.491-1.198-.082-2.566-1.28-3.057zM77.656 21.875h-3.125c-1.294 0-2.344 1.05-2.344 2.344 0 1.294 1.05 2.343 2.344 2.343h3.125c1.295 0 2.344-1.049 2.344-2.343 0-1.295-1.05-2.344-2.344-2.344zM67.382 12.618c.915.915 2.4.915 3.315 0l2.21-2.21c.915-.915.915-2.4 0-3.315-.916-.915-2.4-.915-3.315 0l-2.21 2.21c-.915.915-.915 2.4 0 3.315zM55.781 7.813c1.295 0 2.344-1.05 2.344-2.344V2.344c0-1.295-1.05-2.344-2.344-2.344-1.294 0-2.343 1.05-2.343 2.344v3.125c0 1.294 1.049 2.343 2.343 2.343zM40.866 12.618c.915.915 2.399.915 3.314 0 .916-.915.916-2.4 0-3.315l-2.21-2.21c-.915-.915-2.399-.915-3.314 0-.915.916-.915 2.4 0 3.315l2.21 2.21zM70.697 35.82c-.916-.916-2.4-.916-3.315 0-.915.915-.915 2.399 0 3.314l2.21 2.21c.915.915 2.4.915 3.314 0 .916-.915.916-2.4 0-3.315l-2.21-2.21z"/>
        <path d="M61.976 35.957c4.21-2.229 7.087-6.652 7.087-11.738 0-7.324-5.959-13.282-13.282-13.282-4.34 0-8.337 2.112-10.798 5.551-3.32-2.033-7.22-3.207-11.39-3.207-11.33 0-20.677 8.66-21.768 19.71C5.13 34.064 0 39.88 0 46.874c0 6.607 4.58 12.163 10.732 13.663l-.93 2.269c-.49 1.197.083 2.566 1.28 3.057 1.198.49 2.567-.082 3.058-1.28l1.495-3.647h7.955l-.766 1.87c-.491 1.197.082 2.566 1.28 3.057 1.197.49 2.566-.082 3.057-1.28l1.494-3.647h7.955l-.766 1.87c-.49 1.197.082 2.566 1.28 3.057 1.198.491 2.567-.082 3.058-1.28l1.494-3.647h7.955l-.766 1.87c-.49 1.197.082 2.566 1.28 3.057 1.198.49 2.567-.082 3.057-1.28l1.533-3.74c6.999-.8 12.453-6.76 12.453-13.969 0-4.403-2.035-8.338-5.212-10.918zm-6.195-20.332c4.739 0 8.594 3.855 8.594 8.594 0 4.738-3.855 8.593-8.594 8.593-.146 0-.293-.005-.44-.013-.566-5.264-3.007-9.975-6.64-13.449 1.584-2.304 4.216-3.725 7.08-3.725zM53.125 56.25H14.062c-5.169 0-9.374-4.206-9.374-9.375 0-4.421 3.077-8.135 7.201-9.118.253 2.118.81 4.178 1.67 6.15.385.88 1.246 1.406 2.15 1.406.313 0 .63-.063.936-.196 1.186-.518 1.728-1.9 1.21-3.086-.949-2.175-1.432-4.49-1.434-6.878.117-9.376 7.769-17.184 17.173-17.184 8.758 0 16.006 6.585 17.056 15.063-2.814.498-5.406 1.837-7.469 3.9-.915.915-.915 2.399 0 3.314.458.458 1.058.686 1.657.686.6 0 1.2-.228 1.658-.686 1.77-1.77 4.125-2.746 6.629-2.746 5.17 0 9.375 4.206 9.375 9.375 0 5.17-4.206 9.375-9.375 9.375z"/>
    </g>
    <defs>
        <clipPath id="clip0">
            <path fill="#fff" d="M0 0H80V80H0z"/>
        </clipPath>
    </defs>
</svg>
